<svg width="54" height="55" viewBox="0 0 54 55" fill="none" xmlns="http://www.w3.org/2000/svg">
<rect x="0.5" y="0.5" width="53" height="54" rx="26.5" fill="#FCF7CF"/>
<path d="M39.1527 31.5868C39.1547 29.8663 38.5823 28.1943 37.5263 26.836C36.4703 25.4776 34.9911 24.5107 33.3232 24.0884C31.6553 23.6661 29.8942 23.8126 28.319 24.5047C26.7438 25.1969 25.4448 26.395 24.6278 27.9092C23.8108 29.4234 23.5226 31.1669 23.8089 32.8635C24.0952 34.56 24.9397 36.1124 26.2083 37.2746C27.477 38.4368 29.0973 39.1422 30.8124 39.2791C32.5275 39.4159 34.2392 38.9764 35.6761 38.0301L41.1459 43.4999L43.3246 41.3212L37.8547 35.8514C38.697 34.5883 39.1485 33.105 39.1527 31.5868ZM31.4269 36.2222C30.5101 36.2222 29.6139 35.9504 28.8516 35.441C28.0893 34.9317 27.4952 34.2077 27.1443 33.3607C26.7935 32.5137 26.7017 31.5817 26.8805 30.6825C27.0594 29.7833 27.5009 28.9573 28.1492 28.309C28.7974 27.6608 29.6234 27.2193 30.5226 27.0404C31.4218 26.8616 32.3538 26.9534 33.2008 27.3042C34.0479 27.655 34.7718 28.2492 35.2812 29.0115C35.7905 29.7738 36.0624 30.67 36.0624 31.5868C36.0624 32.8162 35.574 33.9952 34.7047 34.8646C33.8354 35.7339 32.6563 36.2222 31.4269 36.2222Z" fill="#232323"/>
<path d="M22.156 36.2224V33.1321H17.2424L14.7702 20.7709H32.6321L32.2922 22.486L35.3825 23.0886L36.4641 17.6806H29.8817C29.8817 16.0414 29.2306 14.4693 28.0715 13.3103C26.9124 12.1512 25.3403 11.5 23.7011 11.5C22.0619 11.5 20.4899 12.1512 19.3308 13.3103C18.1717 14.4693 17.5205 16.0414 17.5205 17.6806H11L14.7084 36.2224H22.156ZM23.7011 14.5903C24.5207 14.5903 25.3068 14.9159 25.8863 15.4954C26.4658 16.075 26.7914 16.861 26.7914 17.6806H20.6108C20.6108 16.861 20.9364 16.075 21.516 15.4954C22.0955 14.9159 22.8815 14.5903 23.7011 14.5903Z" fill="#232323"/>
</svg>
