<svg width="18" height="18" viewBox="0 0 18 18" fill="none" xmlns="http://www.w3.org/2000/svg">
<path d="M16.2058 5.91945C16.1983 5.35494 16.0926 4.79603 15.8935 4.26774C15.7209 3.82213 15.4571 3.41744 15.1192 3.07952C14.7813 2.7416 14.3766 2.47788 13.931 2.30522C13.4095 2.10945 12.8586 2.0036 12.3016 1.99217C11.5846 1.96012 11.3573 1.95117 9.53711 1.95117C7.71695 1.95117 7.48365 1.95117 6.77184 1.99217C6.21517 2.00369 5.66449 2.10954 5.14323 2.30522C4.69755 2.47776 4.29279 2.74143 3.95486 3.07937C3.61692 3.4173 3.35325 3.82206 3.1807 4.26774C2.98455 4.78884 2.87893 5.33965 2.8684 5.89635C2.83635 6.61412 2.82666 6.84146 2.82666 8.66162C2.82666 10.4818 2.82666 10.7143 2.8684 11.4269C2.87958 11.9844 2.98468 12.5345 3.1807 13.057C3.35354 13.5025 3.61741 13.9071 3.95546 14.2449C4.2935 14.5827 4.6983 14.8463 5.14398 15.0188C5.66381 15.2224 6.21459 15.3358 6.77258 15.3542C7.49036 15.3862 7.71769 15.3959 9.53786 15.3959C11.358 15.3959 11.5913 15.3959 12.3031 15.3542C12.86 15.3432 13.411 15.2376 13.9325 15.0419C14.378 14.869 14.7826 14.6052 15.1205 14.2673C15.4584 13.9294 15.7221 13.5248 15.895 13.0794C16.091 12.5576 16.1961 12.0075 16.2073 11.4493C16.2394 10.7322 16.249 10.5049 16.249 8.68398C16.2476 6.86382 16.2476 6.63276 16.2058 5.91945ZM9.53264 12.1037C7.629 12.1037 6.08685 10.5615 6.08685 8.65789C6.08685 6.75425 7.629 5.21211 9.53264 5.21211C10.4465 5.21211 11.323 5.57515 11.9692 6.22136C12.6154 6.86757 12.9784 7.74401 12.9784 8.65789C12.9784 9.57177 12.6154 10.4482 11.9692 11.0944C11.323 11.7406 10.4465 12.1037 9.53264 12.1037ZM13.1156 5.88815C13.01 5.88824 12.9055 5.86753 12.808 5.82718C12.7104 5.78684 12.6218 5.72766 12.5472 5.65303C12.4726 5.5784 12.4134 5.48978 12.373 5.39225C12.3327 5.29472 12.312 5.1902 12.3121 5.08465C12.3121 4.97918 12.3328 4.87475 12.3732 4.77731C12.4136 4.67987 12.4727 4.59134 12.5473 4.51676C12.6219 4.44218 12.7104 4.38303 12.8079 4.34266C12.9053 4.3023 13.0097 4.28153 13.1152 4.28153C13.2207 4.28153 13.3251 4.3023 13.4225 4.34266C13.52 4.38303 13.6085 4.44218 13.6831 4.51676C13.7577 4.59134 13.8168 4.67987 13.8572 4.77731C13.8975 4.87475 13.9183 4.97918 13.9183 5.08465C13.9183 5.52889 13.5591 5.88815 13.1156 5.88815Z" fill="#0043E6"/>
<path d="M9.54254 11.1412C10.909 11.1412 12.0167 10.0335 12.0167 8.66706C12.0167 7.3006 10.909 6.19287 9.54254 6.19287C8.17609 6.19287 7.06836 7.3006 7.06836 8.66706C7.06836 10.0335 8.17609 11.1412 9.54254 11.1412Z" fill="#0043E6"/>
</svg>
