<svg width="18" height="18" viewBox="0 0 18 18" fill="none" xmlns="http://www.w3.org/2000/svg">
<path fill-rule="evenodd" clip-rule="evenodd" d="M6.70341 6.6313H9.1976V7.8737C9.55688 7.15915 10.4783 6.51714 11.8624 6.51714C14.5157 6.51714 15.1456 7.93951 15.1456 10.5492V15.3825H12.4594V11.1435C12.4594 9.65737 12.1001 8.81926 11.1854 8.81926C9.91684 8.81926 9.38966 9.72251 9.38966 11.1429V15.3825H6.70341V6.6313ZM2.09715 15.2683H4.7834V6.51714H2.09715V15.2683ZM5.16821 3.66366C5.16831 3.88882 5.12366 4.11175 5.03684 4.3195C4.95003 4.52725 4.82279 4.71568 4.66252 4.87382C4.33775 5.19659 3.89815 5.37726 3.44028 5.37615C2.9832 5.37584 2.54462 5.19563 2.21937 4.87449C2.05968 4.71581 1.93287 4.52717 1.84621 4.3194C1.75955 4.11162 1.71474 3.88879 1.71436 3.66366C1.71436 3.20901 1.89568 2.77384 2.22004 2.45283C2.545 2.13126 2.98377 1.95097 3.44095 1.95117C3.89895 1.95117 4.33816 2.13182 4.66252 2.45283C4.98622 2.77384 5.16821 3.20901 5.16821 3.66366Z" fill="#0043E6"/>
</svg>
