<svg width="54" height="55" viewBox="0 0 54 55" fill="none" xmlns="http://www.w3.org/2000/svg">
<rect x="0.5" y="0.5" width="53" height="54" rx="26.5" fill="#FCF7CF"/>
<path d="M43.4654 25.3373C43.454 25.2573 43.4471 25.1784 43.4186 25.103C43.3934 25.0322 43.35 24.9739 43.3112 24.911C43.2734 24.8493 43.2403 24.7876 43.1923 24.7327C43.1363 24.6722 43.0689 24.6299 43.0015 24.5819C42.9557 24.5499 42.9237 24.5065 42.8735 24.4813L35.9538 20.9752L38.2062 18.7193C38.6519 18.2725 38.6519 17.5502 38.2051 17.1034L30.9368 9.83513C30.49 9.38829 29.7678 9.38829 29.3209 9.83513L26.9736 12.1802L24.6286 9.83513C24.1817 9.38829 23.4595 9.38829 23.0126 9.83513L11.836 21.0118C11.3891 21.4586 11.3891 22.1809 11.836 22.6277L13.5639 24.3579H12.6428C12.0108 24.3579 11.5 24.8699 11.5 25.5007V40.3572C11.5 40.988 12.0108 41.5 12.6428 41.5H42.3558C42.9877 41.5 43.4986 40.988 43.4986 40.3572V25.5007C43.4986 25.4424 43.4746 25.3933 43.4654 25.3373ZM37.5708 24.3579H32.5756L34.2544 22.6768L37.5708 24.3579ZM30.1277 12.2602L35.7801 17.9125L29.3449 24.3579H23.0926L20.5556 21.8209L27.7724 14.6109C27.7747 14.6086 27.7781 14.6086 27.7804 14.6063C27.7827 14.6041 27.7827 14.6018 27.785 14.5995L30.1277 12.2602ZM14.2587 21.8209L23.8195 12.2602L25.3554 13.7961L18.1317 21.0118C17.9169 21.2266 17.7969 21.5169 17.7969 21.8197C17.7969 22.1237 17.9169 22.414 18.1317 22.6288L19.8608 24.3579H16.7958L14.2587 21.8209ZM41.213 39.2144H13.7856V26.6435H41.213V39.2144Z" fill="#232323"/>
</svg>
