<svg width="12" height="12" viewBox="0 0 12 12" fill="none" xmlns="http://www.w3.org/2000/svg">
<path fill-rule="evenodd" clip-rule="evenodd" d="M0.283914 0.296037C0.465759 0.114247 0.712361 0.012123 0.96949 0.012123C1.22662 0.012123 1.47322 0.114247 1.65507 0.296037L5.81797 4.45895L9.98088 0.296037C10.0703 0.203421 10.1773 0.129547 10.2956 0.0787266C10.4139 0.0279058 10.5412 0.00115547 10.6699 3.66129e-05C10.7987 -0.00108224 10.9264 0.0234525 11.0456 0.0722098C11.1647 0.120967 11.273 0.19297 11.3641 0.284017C11.4551 0.375065 11.5271 0.483334 11.5759 0.602506C11.6246 0.721678 11.6492 0.849367 11.648 0.978123C11.6469 1.10688 11.6202 1.23412 11.5693 1.35243C11.5185 1.47074 11.4446 1.57774 11.352 1.66719L7.18913 5.8301L11.352 9.99301C11.5287 10.1759 11.6264 10.4208 11.6242 10.6751C11.622 10.9293 11.52 11.1726 11.3402 11.3523C11.1604 11.5321 10.9172 11.6341 10.663 11.6363C10.4087 11.6385 10.1638 11.5408 9.98088 11.3642L5.81797 7.20125L1.65507 11.3642C1.47218 11.5408 1.22723 11.6385 0.972979 11.6363C0.718728 11.6341 0.475516 11.5321 0.295726 11.3523C0.115937 11.1726 0.0139545 10.9293 0.0117451 10.6751C0.00953573 10.4208 0.107276 10.1759 0.283914 9.99301L4.44682 5.8301L0.283914 1.66719C0.102124 1.48534 0 1.23874 0 0.981613C0 0.724484 0.102124 0.477882 0.283914 0.296037Z" fill="#FB4E4E"/>
</svg>
