<svg width="54" height="55" viewBox="0 0 54 55" fill="none" xmlns="http://www.w3.org/2000/svg">
<rect x="0.5" y="0.5" width="53" height="54" rx="26.5" fill="#FCF7CF"/>
<path d="M43.8528 19.3249L32.775 15.7085C32.5847 15.6323 32.3944 15.6323 32.1659 15.7085L21.0881 19.3249C20.7074 19.4391 20.441 19.8198 20.441 20.2386V34.7806C20.441 35.1994 20.7074 35.5419 21.0881 35.6943L32.1659 39.3107C32.2801 39.3488 32.3563 39.3488 32.4705 39.3488C32.5847 39.3488 32.6608 39.3488 32.775 39.3107L43.8528 35.6562C44.2336 35.5419 44.5 35.1613 44.5 34.7425V20.2386C44.5 19.8198 44.2336 19.4772 43.8528 19.3249ZM31.5188 37.1028L22.3444 34.0954V21.5329L25.9989 22.713V29.8318C25.9989 30.3647 26.4177 30.7834 26.9506 30.7834C27.4836 30.7834 27.9023 30.3647 27.9023 29.8318V23.3601L31.5568 24.5403V37.1028H31.5188ZM32.4705 22.8653L29.8819 22.0278L31.7092 21.3806C32.204 21.1903 32.4705 20.6573 32.2801 20.1624C32.0898 19.6676 31.5568 19.4391 31.062 19.5914L26.9887 21.0761L24.4381 20.2386L32.4705 17.6119L40.5028 20.2386L32.4705 22.8653ZM42.5967 34.0954L38.9421 35.2755V31.1641C38.9421 30.6312 38.5234 30.2124 37.9904 30.2124C37.4574 30.2124 37.0767 30.6312 37.0767 31.1641V35.9227L33.4222 37.1028V24.5403L42.5967 21.5329V34.0954Z" fill="#232323"/>
<path d="M16.0251 21.2666H9.28703C8.75408 21.2666 8.33533 21.6854 8.33533 22.2183C8.33533 22.7513 8.75408 23.17 9.28703 23.17H16.0251C16.558 23.17 16.9768 22.7513 16.9768 22.2183C16.9387 21.6854 16.52 21.2666 16.0251 21.2666Z" fill="#232323"/>
<path d="M16.0251 26.5581H9.28703C8.75408 26.5581 8.33533 26.9769 8.33533 27.5098C8.33533 28.0427 8.75408 28.4615 9.28703 28.4615H16.0251C16.558 28.4615 16.9768 28.0427 16.9768 27.5098C16.9768 26.9769 16.52 26.5581 16.0251 26.5581Z" fill="#232323"/>
<path d="M16.0251 31.8496H9.28703C8.75408 31.8496 8.33533 32.2683 8.33533 32.8013C8.33533 33.3343 8.75408 33.753 9.28703 33.753H16.0251C16.558 33.753 16.9768 33.3343 16.9768 32.8013C16.9768 32.2683 16.52 31.8496 16.0251 31.8496Z" fill="#232323"/>
</svg>
