<svg width="54" height="55" viewBox="0 0 54 55" fill="none" xmlns="http://www.w3.org/2000/svg">
<rect x="0.5" y="0.5" width="53" height="54" rx="26.5" fill="#FCF7CF"/>
<path d="M28.192 40.8554C27.6917 40.6354 27.1914 40.4154 26.6911 40.1954C25.4918 39.6667 24.2926 39.1381 23.0897 38.6094C21.6456 37.9707 20.198 37.3356 18.7539 36.6969C17.4978 36.1434 16.2453 35.5899 14.9893 35.0399C14.3826 34.7738 13.7794 34.49 13.1656 34.2345C13.1549 34.231 13.1478 34.2274 13.1407 34.2239C13.3749 34.6319 13.6091 35.0399 13.8433 35.448C13.8433 34.898 13.8433 34.348 13.8433 33.7945C13.8433 32.4711 13.8433 31.1512 13.8433 29.8277C13.8433 28.2346 13.8433 26.6415 13.8433 25.0483C13.8433 23.6717 13.8433 22.2914 13.8433 20.9148C13.8433 20.2406 13.8575 19.5665 13.8433 18.8959C13.8433 18.8852 13.8433 18.8781 13.8433 18.8675C13.1301 19.2755 12.4204 19.6836 11.7073 20.0916C12.2076 20.3116 12.7078 20.5316 13.2081 20.7516C14.4074 21.2802 15.6067 21.8089 16.8095 22.3375C18.2536 22.9762 19.7013 23.6113 21.1453 24.25C22.4014 24.8035 23.6539 25.357 24.9099 25.907C25.5167 26.1731 26.1199 26.457 26.7337 26.7124C26.7443 26.716 26.7514 26.7195 26.7585 26.7231C26.5243 26.315 26.2902 25.907 26.056 25.499C26.056 26.0489 26.056 26.5989 26.056 27.1524C26.056 28.4759 26.056 29.7958 26.056 31.1192C26.056 32.7123 26.056 34.3055 26.056 35.8986C26.056 37.2753 26.056 38.6555 26.056 40.0322C26.056 40.7063 26.0453 41.3805 26.056 42.0511C26.056 42.0617 26.056 42.0688 26.056 42.0795C26.056 42.821 26.7088 43.5342 27.4753 43.4987C28.2452 43.4632 28.8945 42.8743 28.8945 42.0795C28.8945 41.5295 28.8945 40.9795 28.8945 40.426C28.8945 39.1026 28.8945 37.7827 28.8945 36.4592C28.8945 34.8661 28.8945 33.273 28.8945 31.6798C28.8945 30.3032 28.8945 28.9229 28.8945 27.5462C28.8945 26.8721 28.9052 26.1979 28.8945 25.5273C28.8945 25.5167 28.8945 25.5096 28.8945 25.499C28.8945 25.0448 28.6355 24.47 28.192 24.2748C27.6917 24.0549 27.1914 23.8349 26.6911 23.6149C25.4918 23.0862 24.2926 22.5575 23.0897 22.0289C21.6456 21.3902 20.198 20.7551 18.7539 20.1165C17.4978 19.5629 16.2453 19.0094 14.9893 18.4595C14.3826 18.1898 13.7723 17.9237 13.1656 17.654C13.1585 17.6505 13.1478 17.6469 13.1407 17.6434C12.9207 17.5157 12.6795 17.4518 12.424 17.4482C12.1685 17.4482 11.9308 17.5121 11.7073 17.6434C11.2744 17.8953 11.0047 18.3672 11.0047 18.8675C11.0047 19.4175 11.0047 19.9674 11.0047 20.5209C11.0047 21.8444 11.0047 23.1643 11.0047 24.4877C11.0047 26.0808 11.0047 27.674 11.0047 29.2671C11.0047 30.6438 11.0047 32.024 11.0047 33.4007C11.0047 34.0748 10.9941 34.749 11.0047 35.4196C11.0047 35.4302 11.0047 35.4373 11.0047 35.448C11.0047 35.9021 11.2637 36.4769 11.7073 36.6721C12.2076 36.8921 12.7078 37.1121 13.2081 37.332C14.4074 37.8607 15.6067 38.3894 16.8095 38.9181C18.2536 39.5567 19.7013 40.1919 21.1453 40.8305C22.4014 41.384 23.6539 41.9375 24.9099 42.4875C25.5167 42.7572 26.127 43.0233 26.7337 43.2929C26.7408 43.2965 26.7514 43.3 26.7585 43.3036C27.1204 43.4632 27.454 43.5555 27.8514 43.4455C28.1813 43.3533 28.5361 43.1013 28.6994 42.7926C28.8732 42.4627 28.9619 42.0653 28.8413 41.6998C28.7384 41.3769 28.522 41.0008 28.192 40.8554Z" fill="#232323"/>
<path d="M41.8097 34.2239C41.3094 34.4438 40.8092 34.6638 40.3089 34.8838C39.1096 35.4125 37.9103 35.9412 36.7075 36.4698C35.2634 37.1085 33.8157 37.7436 32.3716 38.3823C31.1156 38.9358 29.8631 39.4893 28.6071 40.0393C28.0003 40.3054 27.3865 40.5644 26.7833 40.8447C26.7762 40.8483 26.7656 40.8518 26.7585 40.8554C27.4717 41.2634 28.1813 41.6714 28.8945 42.0795C28.8945 41.5295 28.8945 40.9795 28.8945 40.426C28.8945 39.1026 28.8945 37.7827 28.8945 36.4592C28.8945 34.8661 28.8945 33.273 28.8945 31.6798C28.8945 30.3032 28.8945 28.9229 28.8945 27.5462C28.8945 26.8721 28.9087 26.1979 28.8945 25.5273C28.8945 25.5167 28.8945 25.5096 28.8945 25.499C28.6603 25.907 28.4261 26.315 28.1919 26.7231C28.6922 26.5031 29.1925 26.2831 29.6928 26.0631C30.8921 25.5344 32.0913 25.0058 33.2942 24.4771C34.7383 23.8384 36.1859 23.2033 37.63 22.5646C38.8861 22.0111 40.1386 21.4577 41.3946 20.9077C42.0013 20.6416 42.6152 20.3826 43.2183 20.1023C43.2254 20.0987 43.2361 20.0952 43.2432 20.0916C42.53 19.6836 41.8204 19.2755 41.1072 18.8675C41.1072 19.4175 41.1072 19.9674 41.1072 20.5209C41.1072 21.8444 41.1072 23.1643 41.1072 24.4877C41.1072 26.0808 41.1072 27.674 41.1072 29.2671C41.1072 30.6438 41.1072 32.024 41.1072 33.4007C41.1072 34.0748 41.0966 34.749 41.1072 35.4196C41.1072 35.4302 41.1072 35.4373 41.1072 35.448C41.1072 36.1895 41.7601 36.9027 42.5265 36.8672C43.2964 36.8318 43.9457 36.2428 43.9457 35.448C43.9457 34.898 43.9457 34.348 43.9457 33.7945C43.9457 32.4711 43.9457 31.1512 43.9457 29.8277C43.9457 28.2346 43.9457 26.6415 43.9457 25.0483C43.9457 23.6717 43.9457 22.2914 43.9457 20.9148C43.9457 20.2406 43.9564 19.5665 43.9457 18.8959C43.9457 18.8852 43.9457 18.8781 43.9457 18.8675C43.9457 18.3672 43.6761 17.8953 43.2432 17.6434C43.0232 17.5157 42.7819 17.4518 42.5265 17.4482C42.271 17.4482 42.0333 17.5121 41.8097 17.6434C41.3094 17.8634 40.8092 18.0834 40.3089 18.3033C39.1096 18.832 37.9103 19.3607 36.7075 19.8894C35.2634 20.528 33.8157 21.1632 32.3716 21.8018C31.1156 22.3553 29.8631 22.9088 28.6071 23.4588C28.0003 23.7249 27.3829 23.9768 26.7833 24.2642C26.7762 24.2677 26.7656 24.2713 26.7585 24.2748C26.315 24.47 26.0559 25.0448 26.0559 25.499C26.0559 26.0489 26.0559 26.5989 26.0559 27.1524C26.0559 28.4759 26.0559 29.7958 26.0559 31.1192C26.0559 32.7123 26.0559 34.3055 26.0559 35.8986C26.0559 37.2753 26.0559 38.6555 26.0559 40.0322C26.0559 40.7063 26.0453 41.3805 26.0559 42.0511C26.0559 42.0617 26.0559 42.0688 26.0559 42.0795C26.0559 42.5798 26.3256 43.0517 26.7585 43.3036C26.9785 43.4313 27.2197 43.4952 27.4752 43.4987C27.7307 43.4987 27.9684 43.4349 28.1919 43.3036C28.6922 43.0836 29.1925 42.8636 29.6928 42.6436C30.8921 42.1149 32.0913 41.5863 33.2942 41.0576C34.7383 40.4189 36.1859 39.7838 37.63 39.1451C38.8861 38.5916 40.1386 38.0381 41.3946 37.4882C42.0013 37.222 42.6187 36.9701 43.2183 36.6827C43.2254 36.6792 43.2361 36.6756 43.2432 36.6721C43.5483 36.5373 43.8109 36.1292 43.896 35.8241C43.9883 35.4835 43.9457 35.0328 43.7541 34.7312C43.559 34.4297 43.268 34.16 42.9061 34.0784C42.7819 34.0606 42.6542 34.0429 42.53 34.0287C42.271 34.0323 42.0333 34.0961 41.8097 34.2239Z" fill="#232323"/>
<path d="M41.8103 17.6434C41.31 17.8633 40.8097 18.0833 40.3094 18.3033C39.1101 18.832 37.9109 19.3607 36.708 19.8893C35.2639 20.528 33.8163 21.1631 32.3722 21.8018C31.1161 22.3553 29.8636 22.9088 28.6076 23.4588C28.0009 23.7249 27.387 23.9839 26.7839 24.2642C26.7768 24.2677 26.7661 24.2713 26.759 24.2748C27.238 24.2748 27.7135 24.2748 28.1925 24.2748C27.6922 24.0549 27.1919 23.8349 26.6916 23.6149C25.4923 23.0862 24.2931 22.5575 23.0902 22.0289C21.6461 21.3902 20.1985 20.7551 18.7544 20.1164C17.4983 19.5629 16.2458 19.0094 14.9898 18.4594C14.3831 18.1933 13.7799 17.9095 13.166 17.654C13.1554 17.6504 13.1483 17.6469 13.1412 17.6434C13.0277 18.5091 12.9141 19.3713 12.8006 20.2371C13.3009 20.0384 13.8012 19.8432 14.3014 19.6445C15.4972 19.1726 16.6965 18.7007 17.8922 18.2252C19.3398 17.654 20.7875 17.0827 22.2351 16.5115C23.4912 16.0148 24.7472 15.518 26.0033 15.0248C26.61 14.7835 27.2274 14.5635 27.827 14.3045C27.8341 14.301 27.8447 14.2974 27.8518 14.2939C27.5999 14.2939 27.348 14.2939 27.0961 14.2939C27.5964 14.4926 28.0967 14.6877 28.597 14.8864C29.7927 15.3583 30.992 15.8302 32.1877 16.3057C33.6353 16.8769 35.083 17.4482 36.5306 18.0195C37.7867 18.5162 39.0427 19.0129 40.2988 19.5061C40.9055 19.7474 41.5087 20.0064 42.1225 20.2264C42.1296 20.2299 42.1403 20.2335 42.1474 20.2371C42.4702 20.3648 42.9563 20.2619 43.2402 20.0951C43.5347 19.9213 43.815 19.5842 43.893 19.2471C43.9746 18.8852 43.9569 18.4772 43.7511 18.1543C43.6766 18.0585 43.6021 17.9627 43.5276 17.8669C43.3502 17.6895 43.1408 17.5688 42.8996 17.5014C42.3993 17.3027 41.899 17.1076 41.3987 16.9089C40.1959 16.4334 38.993 15.958 37.7938 15.4861C36.3426 14.9113 34.8878 14.34 33.4366 13.7652C32.1841 13.272 30.9316 12.7753 29.6791 12.2821C29.0795 12.0444 28.4834 11.7889 27.8731 11.5689C27.4864 11.4305 27.1954 11.5228 26.869 11.6505C26.5568 11.7747 26.2445 11.8989 25.9323 12.0195C24.8004 12.4666 23.665 12.9137 22.5332 13.3607C21.0891 13.932 19.6414 14.5032 18.1973 15.0745C16.8916 15.589 15.5894 16.1034 14.2837 16.6215C13.5705 16.9018 12.8574 17.1856 12.1477 17.4659C12.1158 17.4801 12.0839 17.4908 12.0484 17.505C11.8213 17.5937 11.5978 17.693 11.4204 17.8704C11.1968 18.094 11.0726 18.3778 11.0301 18.6865C10.9946 18.9455 11.0265 19.1797 11.1259 19.421C11.2359 19.68 11.4416 19.9816 11.7078 20.0987C12.2116 20.3187 12.7154 20.5422 13.2157 20.7622C14.4221 21.2944 15.6285 21.8266 16.8348 22.3588C18.286 22.9975 19.7372 23.6362 21.1884 24.2784C22.4374 24.8284 23.6863 25.3783 24.9388 25.9318C25.5385 26.1944 26.1381 26.4641 26.7377 26.7231C26.7448 26.7266 26.7484 26.7266 26.7555 26.7302H26.759C26.8726 26.7763 26.9861 26.826 27.0996 26.8721C27.2877 26.9324 27.4757 26.9395 27.6673 26.8969C27.866 26.8685 28.0328 26.7976 28.2173 26.7195C28.2812 26.6911 28.3486 26.6627 28.4125 26.6344C28.7247 26.496 29.0334 26.3612 29.3456 26.2228C30.4775 25.7225 31.6129 25.2257 32.7447 24.7255C34.1888 24.0903 35.6329 23.4517 37.077 22.8166C38.3863 22.2382 39.6956 21.6634 41.0048 21.085C41.7216 20.7693 42.4347 20.4535 43.1515 20.1412C43.1834 20.127 43.2153 20.1129 43.2508 20.0987C43.556 19.9638 43.8185 19.5558 43.9037 19.2507C43.9959 18.91 43.9534 18.4594 43.7618 18.1578C43.5666 17.8562 43.2757 17.5866 42.9137 17.505C42.7896 17.4872 42.6618 17.4695 42.5376 17.4553C42.2715 17.4517 42.0338 17.5156 41.8103 17.6434Z" fill="#232323"/>
<path d="M33.94 21.9933C33.94 23.3451 33.94 24.697 33.94 26.0453C33.94 26.2369 33.94 26.4249 33.94 26.6165C33.94 27.3581 34.5929 28.0713 35.3593 28.0358C36.1292 28.0003 36.7785 27.4113 36.7785 26.6165C36.7785 25.2647 36.7785 23.9128 36.7785 22.5645C36.7785 22.3729 36.7785 22.1849 36.7785 21.9933C36.7785 21.2517 36.1257 20.5385 35.3593 20.574C34.5893 20.606 33.94 21.1949 33.94 21.9933Z" fill="#232323"/>
<path d="M19.9319 17.1678C20.4322 17.3736 20.9289 17.5794 21.4292 17.7852C22.6285 18.2784 23.8242 18.7716 25.0235 19.2647C26.4747 19.8608 27.9223 20.4569 29.3735 21.053C30.626 21.5675 31.8785 22.0855 33.1345 22.6C33.7413 22.8484 34.3445 23.118 34.9618 23.3522C34.9689 23.3558 34.9796 23.3593 34.9867 23.3629C35.3025 23.4941 35.7992 23.3842 36.0795 23.2209C36.374 23.0471 36.6543 22.71 36.7324 22.3729C36.814 22.011 36.7962 21.603 36.5904 21.2801C36.5159 21.1843 36.4414 21.0885 36.3669 20.9927C36.1895 20.8153 35.9802 20.6946 35.7389 20.6272C35.2386 20.4214 34.7419 20.2156 34.2416 20.0099C33.0423 19.5167 31.8466 19.0235 30.6473 18.5303C29.1961 17.9342 27.7484 17.3381 26.2973 16.742C25.0448 16.2275 23.7923 15.7095 22.5362 15.195C21.9295 14.9466 21.3263 14.677 20.7089 14.4428C20.7018 14.4393 20.6912 14.4357 20.6841 14.4322C20.3683 14.3009 19.8716 14.4109 19.5913 14.5741C19.2968 14.7479 19.0164 15.085 18.9384 15.4221C18.8568 15.784 18.8745 16.192 19.0803 16.5149C19.1548 16.6107 19.2293 16.7065 19.3039 16.8023C19.4813 16.9797 19.6906 17.1004 19.9319 17.1678Z" fill="#232323"/>
</svg>
