<svg width="81" height="81" viewBox="0 0 81 81" fill="none" xmlns="http://www.w3.org/2000/svg">
<path d="M23.2875 69.525C28.35 72.5625 34.425 74.25 40.5 74.25C59.0625 74.25 74.25 59.0625 74.25 40.5C74.25 21.9375 59.0625 6.75 40.5 6.75C21.9375 6.75 6.75 21.9375 6.75 40.5C6.75 46.575 8.4375 52.3125 11.1375 57.375L8.23649 68.5327C7.5793 71.0604 9.91887 73.3446 12.4301 72.6271L23.2875 69.525Z" stroke="#2E9A73" stroke-width="5.0625" stroke-miterlimit="10" stroke-linecap="round" stroke-linejoin="round"/>
<path d="M55.6875 50.1137C55.6875 50.6604 55.5658 51.2224 55.3072 51.7691C55.0487 52.3159 54.714 52.8323 54.2729 53.3183C53.5276 54.1384 52.7063 54.7307 51.7785 55.1104C50.8658 55.4901 49.8772 55.6875 48.8124 55.6875C47.261 55.6875 45.6031 55.323 43.8539 54.5788C42.1047 53.8346 40.3555 52.8323 38.6215 51.5717C36.8723 50.2959 35.2144 48.8835 33.6325 47.3192C32.0659 45.7397 30.6513 44.0843 29.3889 42.3529C28.1416 40.6215 27.1377 38.8901 26.4076 37.1739C25.6775 35.4426 25.3125 33.7871 25.3125 32.2076C25.3125 31.1749 25.495 30.1877 25.8601 29.2764C26.2251 28.35 26.8031 27.4995 27.6093 26.7401C28.5827 25.7833 29.6474 25.3125 30.773 25.3125C31.1989 25.3125 31.6248 25.4036 32.005 25.5859C32.4005 25.7681 32.7503 26.0415 33.0241 26.4364L36.5529 31.4027C36.8267 31.7824 37.0244 32.1317 37.1613 32.4658C37.2982 32.7848 37.3743 33.1037 37.3743 33.3923C37.3743 33.7568 37.2678 34.1213 37.0549 34.4706C36.8571 34.8199 36.5681 35.1844 36.2031 35.5489L35.0471 36.7487C34.8798 36.9158 34.8037 37.1132 34.8037 37.3562C34.8037 37.4777 34.8189 37.584 34.8494 37.7055C34.895 37.827 34.9406 37.9181 34.9711 38.0093C35.2448 38.5104 35.7164 39.1635 36.3856 39.9533C37.0701 40.743 37.8002 41.5479 38.5911 42.3529C39.4125 43.1578 40.2034 43.902 41.0095 44.5854C41.8005 45.2537 42.4545 45.7093 42.9717 45.9827C43.0477 46.0131 43.139 46.0586 43.2455 46.1042C43.3671 46.1498 43.4888 46.1649 43.6257 46.1649C43.8843 46.1649 44.082 46.0738 44.2493 45.9068L45.4053 44.7677C45.7856 44.388 46.1506 44.0994 46.5005 43.9172C46.8503 43.7046 47.2001 43.5983 47.5804 43.5983C47.8694 43.5983 48.1736 43.659 48.5082 43.7957C48.8429 43.9324 49.1927 44.1298 49.573 44.388L54.6076 47.9571C55.003 48.2304 55.2768 48.5494 55.4441 48.9291C55.5962 49.3087 55.6875 49.6884 55.6875 50.1137Z" stroke="#2E9A73" stroke-width="5.0625" stroke-miterlimit="10"/>
</svg>
