<svg width="18" height="18" viewBox="0 0 18 18" fill="none" xmlns="http://www.w3.org/2000/svg">
<path d="M6.73797 2.6582C6.83475 2.65824 6.93048 2.67815 7.01925 2.7167C7.10801 2.75525 7.18792 2.81161 7.25402 2.88229L7.30774 2.94733L10.3291 7.0672L14.5324 2.86533C14.6596 2.73854 14.8303 2.66494 15.0098 2.65946C15.1893 2.65397 15.3642 2.71703 15.4989 2.83581C15.6336 2.9546 15.7181 3.12021 15.7351 3.299C15.7521 3.47779 15.7005 3.65637 15.5906 3.79845L15.5319 3.8649L11.1752 8.22088L15.6019 14.2579C15.6752 14.3579 15.7209 14.4755 15.7344 14.5988C15.7479 14.7221 15.7287 14.8467 15.6788 14.9603C15.6289 15.0738 15.55 15.1722 15.45 15.2456C15.35 15.3189 15.2325 15.3647 15.1092 15.3783L15.0321 15.3826H12.0158C11.919 15.3825 11.8233 15.3626 11.7345 15.3241C11.6457 15.2855 11.5658 15.2292 11.4997 15.1585L11.446 15.0935L8.42324 10.9729L4.22137 15.1755C4.09416 15.3022 3.92346 15.3758 3.74394 15.3813C3.56442 15.3868 3.38954 15.3238 3.25483 15.205C3.12012 15.0862 3.03567 14.9206 3.01864 14.7418C3.00161 14.563 3.05327 14.3844 3.16313 14.2423L3.2218 14.1759L7.57707 9.8192L3.15182 3.7829C3.07852 3.68286 3.03283 3.56529 3.01933 3.44201C3.00584 3.31872 3.02502 3.19406 3.07494 3.08053C3.12487 2.967 3.20378 2.8686 3.30376 2.79522C3.40374 2.72183 3.52126 2.67604 3.64453 2.66244L3.72159 2.6582H6.73797Z" fill="#0043E6"/>
</svg>
